<svg width="452" height="236" xmlns="http://www.w3.org/2000/svg" xmlns:xlink="http://www.w3.org/1999/xlink" xml:space="preserve" overflow="hidden"><defs><clipPath id="clip0"><rect x="184" y="142" width="452" height="236"/></clipPath><clipPath id="clip1"><rect x="185" y="143" width="450" height="235"/></clipPath><clipPath id="clip2"><rect x="185" y="143" width="450" height="235"/></clipPath><clipPath id="clip3"><rect x="185" y="143" width="450" height="235"/></clipPath></defs><g clip-path="url(#clip0)" transform="translate(-184 -142)"><g clip-path="url(#clip1)"><g clip-path="url(#clip2)"><g clip-path="url(#clip3)"><path d="M11.7913 210.298 114.382 210.298C120.852 210.298 126.174 215.619 126.174 222.089 126.174 228.457 120.852 233.778 114.382 233.778L11.7913 233.778C5.42811 233.778 0 228.457 0 222.089 0 215.619 5.42811 210.298 11.7913 210.298ZM51.5559 160.305 51.5559 24.736 19.0986 24.736C12.8378 24.736 7.30724 19.4147 7.30724 13.0471 7.30724 6.57696 12.6285 1.25572 19.0986 1.25572L107.079 1.25572C113.549 1.25572 118.871 6.57696 118.871 13.0471 118.871 19.4147 113.549 24.736 107.079 24.736L75.0406 24.736 75.0406 160.305C75.0406 166.673 69.7194 171.994 63.3517 171.994 57.0864 171.994 51.5559 166.673 51.5559 160.305ZM171.575 210.298 274.166 210.298C280.636 210.298 285.958 215.619 285.958 222.089 285.958 228.457 280.636 233.778 274.166 233.778L171.575 233.778C165.208 233.778 159.784 228.457 159.784 222.089 159.784 215.619 165.212 210.298 171.575 210.298ZM173.561 11.6889C173.561 5.11195 178.673 0 185.25 0 191.93 0 197.042 5.11195 197.042 11.6889L197.042 123.569C197.042 139.43 207.061 149.658 222.922 149.658 238.472 149.658 248.7 139.43 248.7 123.569L248.7 11.6889C248.705 5.11195 253.919 0 260.496 0 267.175 0 272.287 5.11195 272.287 11.6889L272.287 123.569C272.287 151.854 250.891 173.143 222.922 173.143 194.637 173.143 173.557 151.854 173.557 123.569L173.557 11.6889ZM331.36 210.298 436.039 210.298C442.509 210.298 447.83 215.619 447.83 222.089 447.83 228.457 442.509 233.778 436.039 233.778L331.36 233.778C324.992 233.778 319.568 228.457 319.568 222.089 319.568 215.619 324.992 210.298 331.36 210.298ZM341.9 11.6889C341.9 5.32124 347.221 0 353.589 0 360.059 0 365.38 5.32124 365.38 11.6889L365.38 147.258 421.527 147.258C427.997 147.258 433.318 152.579 433.318 159.049 433.318 165.417 427.997 170.738 421.527 170.738L353.589 170.738C347.221 170.738 341.9 165.417 341.9 159.049L341.9 11.6889Z" fill="#FFFFFF" fill-rule="nonzero" fill-opacity="1" transform="matrix(1.00485 0 0 1 185 143.611)"/></g></g></g></g></svg>