<?xml version="1.0" standalone="yes"?>
<svg xmlns="http://www.w3.org/2000/svg" width="512" height="512">
<path style="fill:#47714d; stroke:none;" d="M0 0L0 512L512 512L512 0L0 0z"/>
<path style="fill:#ffffff; stroke:none;" d="M237 78.4244C209.295 82.1065 182.607 90.323 159 105.695C138.998 118.72 122.026 135.408 108.435 155C58.982 226.292 70.5142 329.585 135 387.83C174.929 423.896 228.842 439.878 282 432.718C306.27 429.448 330.245 420.521 351 407.575C457.181 341.341 461.22 183.117 360 110.579C342.038 97.7072 321.432 88.2315 300 82.8734C280.09 77.8959 257.457 75.7055 237 78.4244z"/>
<path style="fill:#47714d; stroke:none;" d="M157 177L158 178L157 177z"/>
<path style="fill:#142030; stroke:none;" d="M158 177C166.534 197.186 186.46 216.444 199.627 234C203.516 239.186 214.545 249.314 214.545 256C214.545 262.686 203.516 272.814 199.627 278C186.46 295.556 166.534 314.814 158 335C165.902 335 178.499 337.423 185.826 334.397C190.982 332.268 194.896 324.308 198.127 320L225.127 284C229.828 277.732 244.981 264.048 244.708 256C244.497 249.746 234.772 240.86 231.127 236L200.373 195C196.552 189.904 192.277 181.281 186.7 178.028C180.116 174.187 165.535 177 158 177z"/>
<path style="fill:#abafb5; stroke:none;" d="M158 179L159 180L158 179z"/>
<path style="fill:#7a808a; stroke:none;" d="M188 179L189 180L188 179M159 180L160 181L159 180z"/>
<path style="fill:#abafb5; stroke:none;" d="M189 180L190 181L189 180z"/>
<path style="fill:#47714d; stroke:none;" d="M160 181L161 182L160 181z"/>
<path style="fill:#abafb5; stroke:none;" d="M161 183L162 184L161 183z"/>
<path style="fill:#47714d; stroke:none;" d="M191 183L192 184L191 183z"/>
<path style="fill:#7a808a; stroke:none;" d="M162 184L163 185L162 184z"/>
<path style="fill:#abafb5; stroke:none;" d="M192 184L193 185L192 184z"/>
<path style="fill:#47714d; stroke:none;" d="M163 185L164 186L163 185z"/>
<path style="fill:#abafb5; stroke:none;" d="M193 185L194 186L193 185M164 187L165 188L164 187z"/>
<path style="fill:#47714d; stroke:none;" d="M194 187L195 188L194 187z"/>
<path style="fill:#7a808a; stroke:none;" d="M165 188L166 189L165 188z"/>
<path style="fill:#abafb5; stroke:none;" d="M195 188L196 189L195 188z"/>
<path style="fill:#47714d; stroke:none;" d="M166 189L167 190L166 189z"/>
<path style="fill:#abafb5; stroke:none;" d="M196 189L197 190L196 189M167 191L168 192L167 191z"/>
<path style="fill:#47714d; stroke:none;" d="M197 191L198 192L197 191z"/>
<path style="fill:#7a808a; stroke:none;" d="M168 192L169 193L168 192z"/>
<path style="fill:#abafb5; stroke:none;" d="M198 192L199 193L198 192z"/>
<path style="fill:#47714d; stroke:none;" d="M169 193L170 194L169 193z"/>
<path style="fill:#abafb5; stroke:none;" d="M199 193L200 194L199 193M170 195L171 196L170 195z"/>
<path style="fill:#47714d; stroke:none;" d="M200 195L201 196L200 195z"/>
<path style="fill:#abafb5; stroke:none;" d="M171 196L172 197L171 196M201 196L202 197L201 196z"/>
<path style="fill:#47714d; stroke:none;" d="M172 197L173 198L172 197z"/>
<path style="fill:#abafb5; stroke:none;" d="M202 197L203 198L202 197M173 199L174 200L173 199z"/>
<path style="fill:#47714d; stroke:none;" d="M203 199L204 200L203 199z"/>
<path style="fill:#abafb5; stroke:none;" d="M174 200L175 201L174 200M204 200L205 201L204 200z"/>
<path style="fill:#47714d; stroke:none;" d="M175 201L176 202L175 201z"/>
<path style="fill:#abafb5; stroke:none;" d="M205 201L206 202L205 201M176 203L177 204L176 203z"/>
<path style="fill:#47714d; stroke:none;" d="M206 203L207 204L206 203z"/>
<path style="fill:#abafb5; stroke:none;" d="M177 204L178 205L177 204M207 204L208 205L207 204z"/>
<path style="fill:#47714d; stroke:none;" d="M178 205L179 206L178 205z"/>
<path style="fill:#abafb5; stroke:none;" d="M208 205L209 206L208 205M179 207L180 208L179 207z"/>
<path style="fill:#47714d; stroke:none;" d="M209 207L210 208L209 207z"/>
<path style="fill:#abafb5; stroke:none;" d="M180 208L181 209L180 208M210 208L211 209L210 208z"/>
<path style="fill:#47714d; stroke:none;" d="M181 209L182 210L181 209z"/>
<path style="fill:#abafb5; stroke:none;" d="M211 209L212 210L211 209M182 211L183 212L182 211z"/>
<path style="fill:#47714d; stroke:none;" d="M212 211L213 212L212 211z"/>
<path style="fill:#abafb5; stroke:none;" d="M183 212L184 213L183 212M213 212L214 213L213 212z"/>
<path style="fill:#47714d; stroke:none;" d="M184 213L185 214L184 213z"/>
<path style="fill:#abafb5; stroke:none;" d="M214 213L215 214L214 213M185 215L186 216L185 215z"/>
<path style="fill:#47714d; stroke:none;" d="M215 215L216 216L215 215z"/>
<path style="fill:#abafb5; stroke:none;" d="M186 216L187 217L186 216M216 216L217 217L216 216z"/>
<path style="fill:#47714d; stroke:none;" d="M187 217L188 218L187 217z"/>
<path style="fill:#abafb5; stroke:none;" d="M217 217L218 218L217 217M188 219L189 220L188 219z"/>
<path style="fill:#47714d; stroke:none;" d="M218 219L219 220L218 219z"/>
<path style="fill:#abafb5; stroke:none;" d="M189 220L190 221L189 220M219 220L220 221L219 220z"/>
<path style="fill:#47714d; stroke:none;" d="M190 221L191 222L190 221z"/>
<path style="fill:#abafb5; stroke:none;" d="M220 221L221 222L220 221M191 223L192 224L191 223z"/>
<path style="fill:#47714d; stroke:none;" d="M221 223L222 224L221 223z"/>
<path style="fill:#abafb5; stroke:none;" d="M192 224L193 225L192 224z"/>
<path style="fill:#7a808a; stroke:none;" d="M222 224L223 225L222 224z"/>
<path style="fill:#47714d; stroke:none;" d="M193 225L194 226L193 225z"/>
<path style="fill:#abafb5; stroke:none;" d="M223 225L224 226L223 225M194 227L195 228L194 227z"/>
<path style="fill:#47714d; stroke:none;" d="M224 227L225 228L224 227z"/>
<path style="fill:#abafb5; stroke:none;" d="M195 228L196 229L195 228z"/>
<path style="fill:#7a808a; stroke:none;" d="M225 228L226 229L225 228z"/>
<path style="fill:#47714d; stroke:none;" d="M196 229L197 230L196 229z"/>
<path style="fill:#abafb5; stroke:none;" d="M226 229L227 230L226 229M197 231L198 232L197 231z"/>
<path style="fill:#47714d; stroke:none;" d="M227 231L228 232L227 231z"/>
<path style="fill:#abafb5; stroke:none;" d="M198 232L199 233L198 232z"/>
<path style="fill:#7a808a; stroke:none;" d="M228 232L229 233L228 232z"/>
<path style="fill:#47714d; stroke:none;" d="M199 233L200 234L199 233z"/>
<path style="fill:#abafb5; stroke:none;" d="M229 233L230 234L229 233z"/>
<path style="fill:#47714d; stroke:none;" d="M230 235L231 236L230 235z"/>
<path style="fill:#abafb5; stroke:none;" d="M201 236L202 237L201 236z"/>
<path style="fill:#7a808a; stroke:none;" d="M231 236L232 237L231 236M202 237L203 238L202 237z"/>
<path style="fill:#abafb5; stroke:none;" d="M232 237L233 238L232 237z"/>
<path style="fill:#47714d; stroke:none;" d="M233 239L234 240L233 239z"/>
<path style="fill:#abafb5; stroke:none;" d="M204 240L205 241L204 240z"/>
<path style="fill:#7a808a; stroke:none;" d="M234 240L235 241L234 240M205 241L206 242L205 241z"/>
<path style="fill:#abafb5; stroke:none;" d="M235 241L236 242L235 241z"/>
<path style="fill:#47714d; stroke:none;" d="M236 243L237 244L236 243z"/>
<path style="fill:#abafb5; stroke:none;" d="M207 244L208 245L207 244z"/>
<path style="fill:#7a808a; stroke:none;" d="M237 244L238 245L237 244M208 245L209 246L208 245z"/>
<path style="fill:#abafb5; stroke:none;" d="M238 245L239 246L238 245z"/>
<path style="fill:#47714d; stroke:none;" d="M239 247L240 248L239 247z"/>
<path style="fill:#abafb5; stroke:none;" d="M210 248L211 249L210 248z"/>
<path style="fill:#7a808a; stroke:none;" d="M240 248L241 249L240 248M211 249L212 250L211 249z"/>
<path style="fill:#abafb5; stroke:none;" d="M241 249L242 250L241 249z"/>
<path style="fill:#47714d; stroke:none;" d="M242 251L243 252L242 251z"/>
<path style="fill:#abafb5; stroke:none;" d="M213 252L214 253L213 252z"/>
<path style="fill:#7a808a; stroke:none;" d="M243 252L244 253L243 252M214 253L215 254L214 253z"/>
<path style="fill:#abafb5; stroke:none;" d="M244 253L245 254L244 253z"/>
<path style="fill:#47714d; stroke:none;" d="M245 255L246 256L245 255z"/>
<path style="fill:#7a808a; stroke:none;" d="M214 258L215 259L214 258z"/>
<path style="fill:#abafb5; stroke:none;" d="M244 258L245 259L244 258M213 259L214 260L213 259z"/>
<path style="fill:#7a808a; stroke:none;" d="M243 259L244 260L243 259M211 262L212 263L211 262z"/>
<path style="fill:#abafb5; stroke:none;" d="M241 262L242 263L241 262M210 263L211 264L210 263z"/>
<path style="fill:#7a808a; stroke:none;" d="M240 263L241 264L240 263M208 266L209 267L208 266z"/>
<path style="fill:#abafb5; stroke:none;" d="M238 266L239 267L238 266M207 267L208 268L207 267z"/>
<path style="fill:#7a808a; stroke:none;" d="M237 267L238 268L237 267M205 270L206 271L205 270z"/>
<path style="fill:#abafb5; stroke:none;" d="M235 270L236 271L235 270M204 271L205 272L204 271z"/>
<path style="fill:#7a808a; stroke:none;" d="M234 271L235 272L234 271M202 274L203 275L202 274z"/>
<path style="fill:#abafb5; stroke:none;" d="M232 274L233 275L232 274M201 275L202 276L201 275z"/>
<path style="fill:#7a808a; stroke:none;" d="M231 275L232 276L231 275z"/>
<path style="fill:#47714d; stroke:none;" d="M230 276L231 277L230 276M199 278L200 279L199 278z"/>
<path style="fill:#abafb5; stroke:none;" d="M229 278L230 279L229 278M198 279L199 280L198 279z"/>
<path style="fill:#7a808a; stroke:none;" d="M228 279L229 280L228 279z"/>
<path style="fill:#47714d; stroke:none;" d="M227 280L228 281L227 280M196 282L197 283L196 282z"/>
<path style="fill:#abafb5; stroke:none;" d="M226 282L227 283L226 282M195 283L196 284L195 283z"/>
<path style="fill:#7a808a; stroke:none;" d="M225 283L226 284L225 283z"/>
<path style="fill:#47714d; stroke:none;" d="M224 284L225 285L224 284M193 286L194 287L193 286z"/>
<path style="fill:#abafb5; stroke:none;" d="M223 286L224 287L223 286M192 287L193 288L192 287z"/>
<path style="fill:#7a808a; stroke:none;" d="M222 287L223 288L222 287z"/>
<path style="fill:#47714d; stroke:none;" d="M221 288L222 289L221 288M190 290L191 291L190 290z"/>
<path style="fill:#abafb5; stroke:none;" d="M220 290L221 291L220 290z"/>
<path style="fill:#7a808a; stroke:none;" d="M189 291L190 292L189 291M219 291L220 292L219 291z"/>
<path style="fill:#47714d; stroke:none;" d="M218 292L219 293L218 292M187 294L188 295L187 294z"/>
<path style="fill:#abafb5; stroke:none;" d="M217 294L218 295L217 294z"/>
<path style="fill:#7a808a; stroke:none;" d="M186 295L187 296L186 295M216 295L217 296L216 295z"/>
<path style="fill:#47714d; stroke:none;" d="M215 296L216 297L215 296M184 298L185 299L184 298z"/>
<path style="fill:#abafb5; stroke:none;" d="M214 298L215 299L214 298z"/>
<path style="fill:#7a808a; stroke:none;" d="M183 299L184 300L183 299M213 299L214 300L213 299z"/>
<path style="fill:#47714d; stroke:none;" d="M212 300L213 301L212 300M181 302L182 303L181 302z"/>
<path style="fill:#7a808a; stroke:none;" d="M180 303L181 304L180 303M210 303L211 304L210 303z"/>
<path style="fill:#47714d; stroke:none;" d="M209 304L210 305L209 304M178 306L179 307L178 306z"/>
<path style="fill:#7a808a; stroke:none;" d="M177 307L178 308L177 307M207 307L208 308L207 307z"/>
<path style="fill:#abafb5; stroke:none;" d="M176 308L177 309L176 308z"/>
<path style="fill:#47714d; stroke:none;" d="M206 308L207 309L206 308M175 310L176 311L175 310z"/>
<path style="fill:#7a808a; stroke:none;" d="M174 311L175 312L174 311M204 311L205 312L204 311z"/>
<path style="fill:#abafb5; stroke:none;" d="M173 312L174 313L173 312z"/>
<path style="fill:#47714d; stroke:none;" d="M203 312L204 313L203 312M172 314L173 315L172 314z"/>
<path style="fill:#7a808a; stroke:none;" d="M171 315L172 316L171 315M201 315L202 316L201 315z"/>
<path style="fill:#abafb5; stroke:none;" d="M266 315L267 316L266 315z"/>
<path style="fill:#7a808a; stroke:none;" d="M267 315L267 316L355 316L328 315L267 315z"/>
<path style="fill:#abafb5; stroke:none;" d="M170 316L171 317L170 316z"/>
<path style="fill:#47714d; stroke:none;" d="M200 316L201 317L200 316z"/>
<path style="fill:#142030; stroke:none;" d="M266 316L267.603 333.972L291 335L355 335L355 316L266 316z"/>
<path style="fill:#47714d; stroke:none;" d="M169 318L170 319L169 318z"/>
<path style="fill:#7a808a; stroke:none;" d="M168 319L169 320L168 319z"/>
<path style="fill:#abafb5; stroke:none;" d="M198 319L199 320L198 319M167 320L168 321L167 320z"/>
<path style="fill:#47714d; stroke:none;" d="M197 320L198 321L197 320M166 322L167 323L166 322z"/>
<path style="fill:#7a808a; stroke:none;" d="M165 323L166 324L165 323z"/>
<path style="fill:#abafb5; stroke:none;" d="M195 323L196 324L195 323M164 324L165 325L164 324z"/>
<path style="fill:#47714d; stroke:none;" d="M194 324L195 325L194 324M163 326L164 327L163 326z"/>
<path style="fill:#7a808a; stroke:none;" d="M162 327L163 328L162 327z"/>
<path style="fill:#abafb5; stroke:none;" d="M192 327L193 328L192 327M161 328L162 329L161 328z"/>
<path style="fill:#47714d; stroke:none;" d="M191 328L192 329L191 328M160 330L161 331L160 330z"/>
<path style="fill:#7a808a; stroke:none;" d="M159 331L160 332L159 331z"/>
<path style="fill:#abafb5; stroke:none;" d="M189 331L190 332L189 331M158 332L159 333L158 332z"/>
<path style="fill:#7a808a; stroke:none;" d="M188 332L189 333L188 332z"/>
<path style="fill:#47714d; stroke:none;" d="M157 334L158 335L157 334M266 334L267 335L266 334z"/>
</svg>
